<svg width="11" height="7" viewBox="0 0 11 7" fill="none" xmlns="http://www.w3.org/2000/svg">
<path d="M0.140625 0.160645C0.244792 0.0668945 0.364583 0.0200195 0.5 0.0200195C0.635417 0.0200195 0.755208 0.0668945 0.859375 0.160645L5.5 4.81689L10.1406 0.160645C10.2448 0.0668945 10.3646 0.0200195 10.5 0.0200195C10.6354 0.0200195 10.7552 0.0668945 10.8594 0.160645C10.9531 0.264811 11 0.384603 11 0.52002C11 0.655436 10.9531 0.775228 10.8594 0.879395L5.85938 5.87939C5.75521 5.97314 5.63542 6.02002 5.5 6.02002C5.36458 6.02002 5.24479 5.97314 5.14062 5.87939L0.140625 0.879395C0.046875 0.775228 0 0.655436 0 0.52002C0 0.384603 0.046875 0.264811 0.140625 0.160645Z" fill="black"/>
</svg>
