<svg width="17" height="17" viewBox="0 0 17 17" fill="none" xmlns="http://www.w3.org/2000/svg">
<path d="M7.65625 1.625C6.83594 1.625 6.06771 1.78125 5.35156 2.09375C4.6224 2.40625 3.99089 2.82943 3.45703 3.36328C2.92318 3.89714 2.5 4.52865 2.1875 5.25781C1.875 5.97396 1.71875 6.74219 1.71875 7.5625C1.71875 8.38281 1.875 9.15104 2.1875 9.86719C2.5 10.5964 2.92318 11.2279 3.45703 11.7617C3.99089 12.2956 4.6224 12.7188 5.35156 13.0312C6.06771 13.3438 6.83594 13.5 7.65625 13.5C8.47656 13.5 9.24479 13.3438 9.96094 13.0312C10.6901 12.7188 11.3216 12.2956 11.8555 11.7617C12.3893 11.2279 12.8125 10.5964 13.125 9.86719C13.4375 9.15104 13.5938 8.38281 13.5938 7.5625C13.5938 6.74219 13.4375 5.97396 13.125 5.25781C12.8125 4.52865 12.3893 3.89714 11.8555 3.36328C11.3216 2.82943 10.6901 2.40625 9.96094 2.09375C9.24479 1.78125 8.47656 1.625 7.65625 1.625ZM0.46875 7.5625C0.46875 6.57292 0.657552 5.64193 1.03516 4.76953C1.41276 3.89714 1.92708 3.13542 2.57812 2.48438C3.22917 1.83333 3.99089 1.31901 4.86328 0.941406C5.73568 0.563803 6.66667 0.375 7.65625 0.375C8.64583 0.375 9.57682 0.563803 10.4492 0.941406C11.3216 1.31901 12.0833 1.83333 12.7344 2.48438C13.3854 3.13542 13.8997 3.89714 14.2773 4.76953C14.6549 5.64193 14.8438 6.57292 14.8438 7.5625C14.8438 8.55208 14.6549 9.48307 14.2773 10.3555C13.8997 11.2279 13.3854 11.9896 12.7344 12.6406C12.0833 13.2917 11.3216 13.806 10.4492 14.1836C9.57682 14.5612 8.64583 14.75 7.65625 14.75C6.66667 14.75 5.73568 14.5612 4.86328 14.1836C3.99089 13.806 3.22917 13.2917 2.57812 12.6406C1.92708 11.9896 1.41276 11.2279 1.03516 10.3555C0.657552 9.48307 0.46875 8.55208 0.46875 7.5625ZM11.8555 11.7617C11.9727 11.6445 12.1191 11.5859 12.2949 11.5859C12.4707 11.5859 12.6172 11.6445 12.7344 11.7617L16.543 15.5508C16.6602 15.681 16.7188 15.8307 16.7188 16C16.7188 16.1693 16.6602 16.319 16.543 16.4492C16.4128 16.5664 16.263 16.625 16.0938 16.625C15.9245 16.625 15.7747 16.5664 15.6445 16.4492L11.8555 12.6406C11.7383 12.5234 11.6797 12.377 11.6797 12.2012C11.6797 12.0254 11.7383 11.8789 11.8555 11.7617Z" fill="black"/>
</svg>
